<?xml version="1.0" standalone="no"?>
<!DOCTYPE svg PUBLIC "-//W3C//DTD SVG 20010904//EN"
 "http://www.w3.org/TR/2001/REC-SVG-20010904/DTD/svg10.dtd">
<svg version="1.0" xmlns="http://www.w3.org/2000/svg"
 width="978.000000pt" height="408.000000pt" viewBox="0 0 978.000000 408.000000"
 preserveAspectRatio="xMidYMid meet">
<metadata>
Created by potrace 1.15, written by Peter Selinger 2001-2017
</metadata>
<rect width="100%" height="100%" fill="#666666"/>
<g transform="translate(0.000000,408.000000) scale(0.100000,-0.100000)"
fill="#000000" stroke="none">
<path d="M330 3551 c-15 -29 -14 -513 2 -529 9 -9 112 -12 400 -12 328 0 389
2 394 14 3 9 -32 65 -83 134 -48 66 -126 173 -173 238 -47 64 -96 130 -108
146 l-24 28 -199 0 c-186 0 -199 -1 -209 -19z"/>
<path d="M1650 3561 c-50 -10 -75 -26 -105 -66 -35 -46 -37 -130 -4 -176 20
-29 111 -79 142 -79 37 0 116 -32 122 -49 8 -26 -2 -47 -31 -60 -53 -24 -120
-4 -142 43 -10 23 -17 26 -66 26 -62 0 -71 -11 -54 -62 12 -38 52 -84 88 -103
14 -7 49 -16 78 -20 146 -20 249 41 259 152 8 92 -44 143 -182 178 -96 25
-115 35 -115 61 0 29 27 44 77 44 44 0 52 -5 76 -43 17 -26 23 -28 70 -25 45
3 52 6 55 25 6 41 -42 108 -98 138 -32 17 -125 26 -170 16z"/>
<path d="M6409 3561 c-85 -17 -157 -91 -179 -182 -17 -71 -8 -187 18 -237 20
-39 20 -40 1 -71 -34 -55 -28 -64 44 -57 34 3 76 4 92 3 148 -9 219 7 272 65
66 71 84 230 39 340 -23 56 -23 57 -5 85 11 15 19 36 19 46 0 17 -6 18 -57 13
-32 -3 -67 -7 -78 -8 -11 -1 -45 1 -75 4 -30 4 -71 3 -91 -1z m86 -121 c7 -12
-121 -200 -135 -200 -13 0 -13 75 0 121 11 39 43 74 75 82 35 8 54 7 60 -3z
m95 -155 c0 -65 -19 -116 -51 -139 -23 -16 -99 -23 -99 -9 0 12 133 203 142
203 4 0 8 -25 8 -55z"/>
<path d="M8824 3543 c-14 -16 -61 -77 -105 -138 -128 -178 -170 -237 -216
-298 -78 -104 -99 -98 320 -95 l362 3 3 269 c2 209 -1 271 -10 278 -7 4 -84 8
-171 8 l-158 0 -25 -27z"/>
<path d="M2686 3535 c-9 -25 -7 -478 3 -493 5 -9 25 -12 62 -10 l54 3 5 105 5
105 82 3 82 3 3 -108 3 -108 60 0 60 0 0 255 0 255 -60 0 -60 0 -3 -92 -3 -93
-79 0 c-92 0 -88 -5 -92 115 l-3 70 -56 3 c-45 2 -58 0 -63 -13z"/>
<path d="M4032 3538 c-5 -7 -17 -33 -25 -58 -9 -25 -25 -70 -36 -100 -73 -203
-111 -316 -111 -332 0 -15 8 -18 61 -18 l60 0 21 50 21 51 80 -3 79 -3 17 -45
16 -45 63 -3 c60 -3 62 -2 62 22 0 14 -4 35 -10 48 -5 13 -38 106 -74 208 -90
261 -77 240 -151 240 -38 0 -67 -5 -73 -12z"/>
<path d="M5095 3528 c-3 -12 -4 -129 -3 -258 l3 -235 125 -3 c146 -4 186 6
240 54 99 90 108 295 17 392 -50 54 -92 66 -239 70 -137 4 -137 4 -143 -20z
m250 -102 c52 -22 72 -81 59 -178 -11 -79 -44 -108 -123 -108 l-61 0 0 150 0
150 45 0 c25 0 61 -6 80 -14z"/>
<path d="M7363 3534 c-3 -8 26 -124 64 -257 l69 -242 53 -3 c30 -2 58 1 62 5
5 5 22 62 38 127 17 65 32 120 34 122 2 3 14 -37 26 -89 12 -51 26 -110 32
-130 l10 -37 59 0 58 0 16 48 c34 105 117 408 119 436 2 31 2 31 -55 34 -68 4
-64 9 -103 -145 -16 -62 -30 -111 -32 -109 -3 2 -15 51 -29 107 -36 152 -34
149 -98 149 -33 0 -58 -5 -65 -14 -6 -7 -20 -56 -31 -109 -32 -151 -32 -151
-64 -19 -16 64 -34 123 -39 130 -14 19 -116 16 -124 -4z"/>
<path d="M4836 2947 c-22 -16 -38 -85 -25 -108 20 -38 10 -73 -26 -96 -19 -13
-39 -23 -43 -23 -23 0 -42 -39 -42 -86 0 -27 -7 -101 -16 -164 -10 -71 -13
-136 -9 -170 3 -30 6 -66 6 -79 -1 -36 30 -81 56 -81 26 0 30 -10 38 -125 10
-151 26 -290 36 -313 7 -18 5 -29 -12 -50 -19 -25 -27 -27 -117 -32 l-97 -5
-90 -135 c-49 -75 -139 -212 -200 -305 -60 -94 -155 -241 -212 -327 -56 -87
-103 -165 -105 -175 -3 -17 40 -18 925 -21 820 -2 927 0 927 13 0 14 -57 105
-390 615 -70 107 -148 228 -173 268 l-47 72 -87 0 -88 0 -18 38 c-15 32 -16
46 -7 112 6 41 12 142 14 225 2 98 7 150 15 153 30 10 54 42 64 87 22 94 10
268 -29 424 -15 58 -29 81 -50 81 -7 0 -29 8 -48 17 l-35 16 2 73 c2 58 -2 76
-17 93 -22 24 -72 28 -100 8z m45 -1457 c-8 -60 -9 -101 -1 -139 5 -29 10 -56
10 -58 0 -2 10 -3 22 -1 33 5 51 97 43 216 -6 91 -6 92 17 92 18 0 23 -6 24
-27 1 -16 11 -55 23 -87 11 -33 21 -70 21 -84 0 -14 4 -39 10 -56 44 -141 48
-163 37 -209 -12 -55 2 -101 31 -95 23 4 50 128 35 167 -10 27 -7 51 6 51 13
0 68 -94 76 -128 8 -38 -11 -152 -29 -177 -7 -10 -42 -20 -99 -29 l-88 -13
-23 46 c-29 59 -49 63 -74 15 l-19 -37 -6 32 c-10 47 -34 51 -72 9 -18 -19
-34 -40 -36 -47 -3 -9 -11 -10 -32 -2 -16 6 -38 11 -50 11 -12 0 -39 5 -60 11
l-39 10 6 47 c3 26 2 63 -2 82 -16 66 34 190 76 190 23 0 23 0 6 -29 -15 -26
-16 -36 -4 -105 16 -89 21 -99 43 -90 25 9 29 37 12 77 -19 46 -19 82 0 115
21 40 75 258 75 308 0 41 1 43 33 46 41 4 42 -3 28 -112z m92 -622 c34 -40 34
-56 1 -68 -28 -11 -116 -13 -151 -4 -27 7 -39 35 -21 49 7 6 18 19 24 30 25
44 106 40 147 -7z"/>
<path d="M650 2786 c-127 -28 -228 -103 -271 -199 -33 -75 -33 -221 0 -289 57
-116 168 -175 456 -238 156 -35 189 -59 189 -139 0 -94 -55 -133 -194 -139
-68 -3 -94 0 -130 16 -58 25 -95 63 -113 115 l-14 42 -120 3 c-95 2 -122 0
-126 -11 -7 -19 16 -124 37 -168 67 -141 230 -219 461 -219 165 0 267 33 355
116 28 26 61 71 77 103 36 76 38 210 4 286 -53 119 -126 159 -439 241 -192 49
-222 68 -222 141 0 90 46 118 191 118 85 0 99 -3 132 -25 37 -25 45 -37 71
-102 l15 -38 116 0 c137 0 137 1 112 99 -29 112 -109 204 -218 254 -96 44
-254 58 -369 33z"/>
<path d="M5658 2785 c-178 -39 -329 -185 -382 -371 -41 -140 -45 -321 -11
-449 69 -258 257 -405 516 -405 226 0 392 117 474 333 29 78 32 112 9 121 -21
8 -198 8 -219 0 -10 -4 -29 -34 -45 -68 -37 -83 -91 -131 -164 -146 -148 -30
-256 38 -303 191 -23 76 -24 293 0 370 41 135 118 198 245 199 112 0 183 -47
231 -155 l20 -46 123 3 123 3 3 29 c4 37 -32 138 -68 191 -116 170 -334 248
-552 200z"/>
<path d="M1304 2747 c-2 -7 57 -123 132 -257 75 -135 150 -270 166 -300 17
-30 43 -75 57 -100 25 -44 26 -50 31 -265 l5 -220 125 0 125 0 5 220 c4 180 8
225 21 245 9 14 41 72 71 130 31 58 108 203 173 324 71 132 113 222 108 227
-5 5 -72 8 -149 7 l-139 -3 -20 -41 c-11 -22 -58 -120 -104 -217 -47 -98 -88
-174 -92 -170 -3 5 -53 98 -109 208 -57 110 -107 206 -113 213 -14 18 -286 17
-293 -1z"/>
<path d="M2445 2748 c-3 -7 -4 -267 -3 -578 l3 -565 115 0 115 0 3 353 c1 193
6 352 10 352 4 0 109 -159 232 -352 l225 -353 120 0 120 0 3 572 2 573 -22 5
c-13 3 -68 5 -123 3 l-100 -3 -5 -342 -5 -342 -94 152 c-158 255 -272 440
-303 490 l-30 47 -129 0 c-95 0 -131 -3 -134 -12z"/>
<path d="M3575 2748 c-3 -7 -4 -267 -3 -578 l3 -565 280 -3 c305 -3 330 0 428
51 174 91 277 290 277 537 0 286 -146 490 -396 554 -81 21 -582 24 -589 4z
m501 -219 c163 -28 223 -138 211 -384 -8 -171 -48 -253 -144 -301 -30 -15 -65
-20 -175 -22 l-138 -4 0 361 0 361 92 0 c50 0 120 -5 154 -11z"/>
<path d="M6715 2728 c-13 -30 -56 -151 -147 -408 -16 -47 -38 -107 -48 -135
-10 -27 -42 -115 -70 -195 -29 -80 -70 -194 -91 -254 -22 -60 -37 -116 -35
-123 4 -10 37 -13 135 -13 l129 0 25 68 c14 37 32 87 40 112 l15 45 202 0 203
0 31 -100 c17 -55 35 -106 39 -113 10 -15 263 -17 272 -2 7 11 -2 37 -95 300
-29 80 -56 156 -60 170 -4 14 -31 90 -60 170 -29 80 -56 156 -60 170 -34 106
-112 316 -121 327 -9 10 -47 13 -150 13 l-139 0 -15 -32z m205 -438 c23 -74
48 -154 56 -178 8 -23 14 -45 14 -47 0 -3 -56 -5 -123 -5 l-124 0 47 143 c25
78 53 163 60 189 8 26 17 44 21 40 4 -4 26 -68 49 -142z"/>
<path d="M7252 2748 c-14 -14 -17 -175 -3 -196 6 -10 47 -13 169 -13 l162 0 0
-453 c0 -348 3 -456 13 -469 11 -15 28 -17 132 -15 l120 3 5 465 c3 256 7 466
8 467 1 1 75 2 164 2 122 0 163 3 169 13 14 21 11 182 -3 196 -17 17 -919 17
-936 0z"/>
<path d="M8305 2738 c-3 -13 -4 -273 -3 -578 l3 -555 440 0 440 0 3 99 c2 64
-1 103 -9 112 -9 11 -67 14 -315 14 l-304 0 0 130 0 130 268 0 c195 0 271 3
280 12 8 8 12 46 12 103 0 57 -4 95 -12 103 -9 9 -85 12 -280 12 l-269 0 3
108 3 107 295 5 295 5 0 105 0 105 -422 3 -423 2 -5 -22z"/>
</g>
</svg>
